<svg t="1735804082171" class="icon" viewBox="0 0 1052 1024" version="1.1" xmlns="http://www.w3.org/2000/svg"
     p-id="18150" width="200" height="200">
    <path d="M584.28453 785.835695c0 130.800578-106.027181 236.844209-236.827759 236.844209-130.817028 0-236.848321-106.043631-236.848321-236.844209 0-130.800578 106.027181-236.844209 236.848321-236.844209 130.800578 0 236.827759 106.043631 236.827759 236.844209"
          fill="#FF6600" p-id="18151"></path>
    <path d="M1052.7049 454.257092c0 130.784129-106.027181 236.844209-236.827759 236.844209-130.817028 0-236.844209-106.06008-236.844209-236.844209 0-130.804691 106.023068-236.864771 236.844209-236.864771 130.800578 0 236.827759 106.06008 236.827759 236.864771"
          fill="#FFCC00" p-id="18152"></path>
    <path d="M473.754217 448.997269c0 130.788241-106.023068 236.848321-236.844209 236.848321-130.784129 0-236.827759-106.06008-236.827759-236.844208 0-130.800578 106.043631-236.864771 236.827759-236.864772 130.817028 0 236.844209 106.06008 236.844209 236.864772"
          fill="#0089CC" p-id="18153"></path>
    <path d="M947.450859 785.835695c0 130.800578-106.027181 236.844209-236.864771 236.844209-130.784129 0-236.827759-106.043631-236.827759-236.844209 0-130.800578 106.043631-236.844209 236.827759-236.844209 130.83759 0 236.864771 106.043631 236.864771 236.844209"
          fill="#009939" p-id="18154"></path>
    <path d="M763.237783 238.456289c0 130.800578-106.043631 236.848321-236.844209 236.848321-130.800578 0-236.844209-106.047743-236.844209-236.848321C289.549365 107.655711 395.592996 1.61208 526.393574 1.61208c130.800578 0 236.844209 106.043631 236.844209 236.844209"
          fill="#BF0000" p-id="18155"></path>
    <path d="M579.028819 454.257092c0 4.980177 0.431807 9.857542 0.744354 14.77192 105.056643-24.234667 183.456386-118.16302 183.456385-230.576835 0-4.984289-0.431807-9.878104-0.740241-14.792482-105.056643 24.255229-183.460498 118.17947-183.460498 230.597397"
          fill="#FC0007" p-id="18156"></path>
    <path d="M610.275213 571.531823c40.816064 71.351004 117.517365 119.565365 205.610152 119.565366 35.901687 0 69.812948-8.2249 100.314988-22.536225-40.795502-71.351004-117.500916-119.565365-205.610152-119.565366-35.901687 0-69.812948 8.229012-100.314988 22.536225"
          fill="#1CD306" p-id="18157"></path>
    <path d="M473.754217 785.835695c0 57.862169 20.800771 110.818185 55.27955 151.946795 34.44588-41.12861 55.246651-94.080514 55.246651-151.946795 0-57.866281-20.800771-110.818185-55.246651-151.946795-34.478779 41.124498-55.27955 94.080514-55.27955 151.946795"
          fill="#0F7504" p-id="18158"></path>
    <path d="M143.14204 666.451277a235.742072 235.742072 0 0 0 93.767968 19.390201c87.22506 0 163.214908-47.27261 204.327068-117.463904a235.791422 235.791422 0 0 0-93.767968-19.377863c-87.22506 0-163.231357 47.276723-204.327068 117.451566"
          fill="#0C5E87" p-id="18159"></path>
    <path d="M290.565141 218.478008c-0.559293 6.596369-1.028112 13.229751-1.028113 19.982394 0 112.327454 78.284594 206.165333 183.217864 230.506923 0.534618-6.596369 1.00755-13.229751 1.00755-19.965943 0-112.327454-78.268145-206.198233-183.197301-230.523374"
          fill="#6B0001" p-id="18160"></path>
    <path d="M312.669558 756.526265h-37.04906c-32.706313 0-59.301526-26.508851-59.301526-59.128803V362.043631c0-32.624064 26.595213-59.153478 59.301526-59.153478H740.199839c32.710426 0 59.289189 26.529414 59.289189 59.153478v335.353831c0 32.619952-26.578763 59.132916-59.289189 59.132916h-158.263518L264.389398 912.190715l48.28016-155.660337z"
          fill="#FFFFFF" p-id="18161"></path>
</svg>