<svg t="1735804014319" class="icon" viewBox="0 0 1024 1024" version="1.1" xmlns="http://www.w3.org/2000/svg"
     p-id="17096" width="200" height="200">
    <path d="M512 512m-512 0a512 512 0 1 0 1024 0 512 512 0 1 0-1024 0Z" fill="#FCDA00" p-id="17097"></path>
    <path d="M407.742171 624.157257l71.68 71.036343h303.104l85.035886 82.139429H442.499657l-95.934171-93.344915 61.176685-59.830857zM470.820571 256l153.058743 152.619886-28.203885 30.529828 56.875885 58.704457v120.7296l-118.432914-115.741257-27.984457 28.350172 117.745371 118.0672h-126.7712l-57.738971-57.592686-31.626972 32.475429-149.752685-150.879086v-83.134172h86.601143v49.005715l63.151542 58.719085 89.380572-89.234285-57.7536-62.829715h-181.394286L170.686171 256h300.149029z m215.04 93.301029l96.504686 95.8464v204.112457h-86.030628V477.915429l-69.544229-65.901715 59.070171-62.698057z"
          fill="#000000" p-id="17098"></path>
</svg>